<svg width="24" height="24" viewBox="0 0 24 24" fill="none" xmlns="http://www.w3.org/2000/svg">
<path d="M12 1.5C17.799 1.5 22.5 6.20101 22.5 12C22.5 17.799 17.799 22.5 12 22.5C11.9736 22.5 11.9472 22.4973 11.9209 22.4971C12.4433 22.4921 12.9566 22.4529 13.459 22.376V15.2109H15.9102L16.377 12.248H13.459V10.3252C13.459 9.51425 13.866 8.72363 15.1729 8.72363H16.5V6.2002C16.4964 6.1996 15.2944 6.00004 14.1455 6C11.7414 6 10.1709 7.42013 10.1709 9.98926V12.248H7.5V15.2109H10.1709V22.3379C5.24416 21.4722 1.5 17.1749 1.5 12C1.5 6.20101 6.20101 1.5 12 1.5Z" fill="#0866FF"/>
</svg>
