<svg width="20" height="20" viewBox="0 0 20 20" fill="none" xmlns="http://www.w3.org/2000/svg">
<g clip-path="url(#clip0_8_27970)">
<path d="M20 10.0608C20 4.53794 15.5229 0.060791 10 0.060791C4.47715 0.060791 0 4.53794 0 10.0608C0 15.052 3.65684 19.1891 8.4375 19.9393V12.9514H5.89844V10.0608H8.4375V7.85767C8.4375 5.35142 9.93047 3.96704 12.2146 3.96704C13.3084 3.96704 14.4531 4.16235 14.4531 4.16235V6.62329H13.1922C11.95 6.62329 11.5625 7.39419 11.5625 8.18579V10.0608H14.3359L13.8926 12.9514H11.5625V19.9393C16.3432 19.1891 20 15.052 20 10.0608Z" fill="#374151"/>
</g>
<defs>
<clipPath id="clip0_8_27970">
<rect width="20" height="20" fill="white"/>
</clipPath>
</defs>
</svg>
