<svg width="20" height="20" viewBox="0 0 20 20" fill="none" xmlns="http://www.w3.org/2000/svg">
<path d="M11.0275 0C12.1529 0.00186007 12.7233 0.00782031 13.2161 0.0224908L13.4102 0.0288311C13.6344 0.0368014 13.8556 0.0468017 14.1223 0.0593021C15.1864 0.108474 15.9124 0.27681 16.5499 0.524319C17.209 0.778498 17.7657 1.12184 18.3216 1.6777C18.8766 2.23355 19.22 2.7919 19.475 3.44943C19.7216 4.08612 19.89 4.81282 19.94 5.87701C19.9519 6.14369 19.9615 6.3649 19.9694 6.58915L19.9757 6.78325C19.9903 7.276 19.997 7.84642 19.9991 8.9719L19.9999 9.71753C20 9.80863 20 9.90263 20 9.99963L19.9999 10.2817L19.9993 11.0275C19.9974 12.1529 19.9915 12.7233 19.9768 13.2161L19.9704 13.4102C19.9625 13.6345 19.9525 13.8557 19.94 14.1223C19.8908 15.1865 19.7216 15.9123 19.475 16.5499C19.2208 17.2091 18.8766 17.7658 18.3216 18.3216C17.7657 18.8767 17.2065 19.22 16.5499 19.475C15.9124 19.7217 15.1864 19.89 14.1223 19.94C13.8556 19.9519 13.6344 19.9616 13.4102 19.9694L13.2161 19.9757C12.7233 19.9904 12.1529 19.997 11.0275 19.9992L10.2818 20C10.1907 20 10.0967 20 9.99965 20H9.71754L8.97182 19.9993C7.84637 19.9975 7.27597 19.9915 6.78321 19.9768L6.58912 19.9705C6.36486 19.9625 6.14365 19.9525 5.87698 19.94C4.81278 19.8909 4.08775 19.7217 3.4494 19.475C2.79103 19.2209 2.23351 18.8767 1.67766 18.3216C1.12181 17.7658 0.779298 17.2066 0.524289 16.5499C0.27678 15.9123 0.109274 15.1865 0.0592718 14.1223C0.0473914 13.8557 0.0377009 13.6345 0.0298506 13.4102L0.0235604 13.2161C0.0089299 12.7233 0.00225974 12.1529 9.96637e-05 11.0275L-3.05176e-05 8.9719C0.00182955 7.84642 0.00777978 7.276 0.0224503 6.78325L0.0288006 6.58915C0.0367709 6.3649 0.0467714 6.14369 0.0592718 5.87701C0.108434 4.81198 0.27678 4.08695 0.524289 3.44943C0.778458 2.79107 1.12181 2.23355 1.67766 1.6777C2.23351 1.12184 2.79187 0.779328 3.4494 0.524319C4.08692 0.27681 4.81194 0.109304 5.87698 0.0593021C6.14365 0.0474317 6.36486 0.0377414 6.58912 0.0298912L6.78321 0.0236007C7.27597 0.00896019 7.84637 0.00229002 8.97182 0.000129943L11.0275 0ZM9.99965 4.99948C7.23663 4.99948 4.99945 7.23909 4.99945 9.99963C4.99945 12.7626 7.23906 14.9998 9.99965 14.9998C12.7627 14.9998 14.9998 12.7602 14.9998 9.99963C14.9998 7.23666 12.7602 4.99948 9.99965 4.99948ZM9.99965 6.99955C11.6566 6.99955 12.9998 8.34227 12.9998 9.99963C12.9998 11.6566 11.657 12.9997 9.99965 12.9997C8.34269 12.9997 6.99953 11.6571 6.99953 9.99963C6.99953 8.34267 8.34219 6.99955 9.99965 6.99955ZM15.2498 3.49943C14.5605 3.49943 13.9998 4.05936 13.9998 4.74862C13.9998 5.4379 14.5597 5.99869 15.2498 5.99869C15.9391 5.99869 16.4999 5.43877 16.4999 4.74862C16.4999 4.05936 15.9382 3.49857 15.2498 3.49943Z" fill="#9CA3AF"/>
</svg>
