<svg width="14" height="14" viewBox="0 0 14 14" fill="none" xmlns="http://www.w3.org/2000/svg">
<path d="M7 0.333618C9.90936 0.333618 12.3811 2.19866 13.291 4.79749C13.3009 4.8197 13.3078 4.84303 13.3145 4.86682C13.5407 5.53687 13.666 6.25425 13.666 7.00061C13.666 7.74895 13.54 8.46772 13.3125 9.13928C13.3064 9.16026 13.3007 9.18107 13.292 9.20081C12.3828 11.8008 9.91023 13.6666 7 13.6666C4.09337 13.6666 1.62287 11.8056 0.710938 9.21057C0.694122 9.17449 0.680682 9.13645 0.672852 9.09631C0.454606 8.43709 0.334027 7.73297 0.333984 7.00061C0.333998 6.26772 0.454334 5.56259 0.672852 4.90295C0.680852 4.86242 0.694762 4.82409 0.711914 4.78772C1.62451 2.19391 4.09423 0.333626 7 0.333618ZM5.0752 9.50061C5.20139 10.1274 5.37004 10.6894 5.57422 11.1617C5.79925 11.6823 6.05368 12.0724 6.31152 12.3248C6.56717 12.575 6.79945 12.6666 7 12.6666C7.20056 12.6666 7.43279 12.575 7.68848 12.3248C7.94637 12.0724 8.20168 11.6824 8.42676 11.1617C8.63093 10.6894 8.79958 10.1274 8.92578 9.50061H5.0752ZM1.91504 9.50061C2.55526 10.8003 3.67841 11.8189 5.05078 12.3219C4.90637 12.0886 4.77458 11.832 4.65625 11.5582C4.3998 10.9649 4.19466 10.2676 4.05371 9.50061H1.91504ZM9.94629 9.50061C9.80529 10.2677 9.60127 10.9658 9.34473 11.5592C9.22632 11.833 9.09274 12.0885 8.94824 12.3219C10.321 11.819 11.4446 10.8006 12.085 9.50061H9.94629ZM1.53613 5.50061C1.40533 5.97835 1.334 6.48139 1.33398 7.00061C1.33402 7.51996 1.40524 8.02277 1.53613 8.50061H3.91406C3.86372 8.0172 3.83398 7.51454 3.83398 6.99963C3.834 6.48536 3.86286 5.98345 3.91309 5.50061H1.53613ZM4.91992 5.50061C4.86636 5.97725 4.834 6.47937 4.83398 6.99963C4.83398 7.5205 4.86625 8.02344 4.91992 8.50061H9.08105C9.13473 8.02346 9.16602 7.52048 9.16602 6.99963C9.166 6.4794 9.13462 5.97723 9.08105 5.50061H4.91992ZM10.0869 5.50061C10.1372 5.98346 10.166 6.48535 10.166 6.99963C10.166 7.51455 10.1363 8.01719 10.0859 8.50061H12.4639C12.5948 8.02277 12.666 7.51997 12.666 7.00061C12.666 6.48138 12.5947 5.97835 12.4639 5.50061H10.0869ZM5.0498 1.67737C3.67744 2.18047 2.55515 3.20079 1.91504 4.50061H4.05371C4.1947 3.73299 4.39958 3.03472 4.65625 2.44104C4.77458 2.1674 4.90541 1.9106 5.0498 1.67737ZM7 1.33362C6.79942 1.33362 6.56713 1.42537 6.31152 1.67542C6.05367 1.92771 5.79927 2.31799 5.57422 2.8385C5.36992 3.31107 5.20141 3.87337 5.0752 4.50061H8.92578C8.79956 3.87344 8.63105 3.31104 8.42676 2.8385C8.20166 2.31795 7.94638 1.92772 7.68848 1.67542C7.43283 1.42536 7.20059 1.33362 7 1.33362ZM9.02832 1.8092C9.14222 2.00627 9.24819 2.21779 9.34473 2.44104C9.60144 3.03471 9.80527 3.733 9.94629 4.50061H12.085C11.4446 3.20024 10.3214 2.18024 8.94824 1.67737L9.02832 1.8092Z" fill="white"/>
</svg>
