<svg width="20" height="20" viewBox="0 0 20 20" fill="none" xmlns="http://www.w3.org/2000/svg">
<path d="M9.32532 0.92485C13.9645 0.92485 17.7256 4.68564 17.7257 9.32426C17.7256 11.374 16.9897 13.2511 15.7697 14.709L18.8556 17.795C19.1483 18.0878 19.1481 18.5626 18.8556 18.8555C18.5627 19.1484 18.0879 19.1484 17.795 18.8555L14.7091 15.7696C13.2511 16.9882 11.3743 17.7227 9.32532 17.7227C4.68631 17.7225 0.925183 13.9627 0.924927 9.32426C0.925069 4.68575 4.68624 0.925031 9.32532 0.92485ZM9.32532 2.42485C5.51438 2.42503 2.42507 5.51446 2.42493 9.32426C2.42518 13.134 5.51445 16.2225 9.32532 16.2227C13.1363 16.2227 16.2255 13.1341 16.2257 9.32426C16.2256 5.51435 13.1364 2.42485 9.32532 2.42485Z" fill="#374151"/>
</svg>
