<svg width="44" height="44" viewBox="0 0 44 44" fill="none" xmlns="http://www.w3.org/2000/svg">
<path d="M22 0.5C33.8741 0.5 43.5 10.1259 43.5 22C43.5 33.8741 33.8741 43.5 22 43.5C10.1259 43.5 0.5 33.8741 0.5 22C0.5 10.1259 10.1259 0.5 22 0.5Z" fill="white"/>
<path d="M22 0.5C33.8741 0.5 43.5 10.1259 43.5 22C43.5 33.8741 33.8741 43.5 22 43.5C10.1259 43.5 0.5 33.8741 0.5 22C0.5 10.1259 10.1259 0.5 22 0.5Z" stroke="#D1D5DB"/>
<path d="M15.513 16.4185C13.8846 18.047 13.8846 20.6873 15.513 22.3158L21.1161 27.9189C21.6043 28.4071 22.3957 28.4071 22.8839 27.9189L28.487 22.3158C30.1155 20.6874 30.1155 18.0471 28.487 16.4186C26.8585 14.7901 24.2182 14.7901 22.5897 16.4186L22.0001 17.0083L21.4103 16.4185C19.7818 14.79 17.1415 14.79 15.513 16.4185Z" stroke="#1F2937" stroke-width="1.5" stroke-linecap="round" stroke-linejoin="round"/>
</svg>
